<?xml version="1.0" encoding="utf-8"?>
<!-- Generator: Adobe Illustrator 21.0.0, SVG Export Plug-In . SVG Version: 6.00 Build 0)  -->
<svg version="1.0" id="Layer_1" xmlns="http://www.w3.org/2000/svg" xmlns:xlink="http://www.w3.org/1999/xlink" x="0px" y="0px"
	 viewBox="0 0 1946 130" style="enable-background:new 0 0 1946 130;" xml:space="preserve">
<style type="text/css">
	.st0{fill:#3427FF;}
	.st1{enable-background:new    ;}
	.st2{fill:#FFFFFF;}
	.st3{opacity:0.5;}
	.st4{fill:#F9E42B;}
	.st5{fill:none;stroke:#000000;stroke-width:5;stroke-miterlimit:10;}
	.st6{opacity:0.2;fill:#F9E42B;}
	.st7{opacity:0.1;fill:#3427FF;}
	.st8{fill:none;stroke:#000000;stroke-width:3;stroke-miterlimit:10;}
	.st9{fill:none;stroke:#3427FF;stroke-width:4;stroke-miterlimit:10;}
</style>
<rect x="860" y="674" class="st0" width="279" height="279"/>
<text transform="matrix(1 0 0 1 973.4585 777.9629)" class="st2" style="font-family:'Avenir-Black'; font-size:47.5153px; letter-spacing:3;">JESS</text>
<g class="st3">
	
		<text transform="matrix(1 0 0 1 898.915 825.1738)" class="st2" style="font-family:'Avenir-Black'; font-size:47.5153px; letter-spacing:3;">DESIGN</text>
</g>
<text transform="matrix(1 0 0 1 985.2422 870.252)" class="st2" style="font-family:'Avenir-Black'; font-size:47.5153px; letter-spacing:3;">TAN</text>
<polygon class="st4" points="894.6,852 957.3,879.8 903.9,911.6 "/>
<polygon class="st5" points="884.9,872.8 947.6,900.7 894.1,932.5 "/>
<polygon class="st4" points="28.6,28 91.3,55.8 37.9,87.6 "/>
<polygon class="st4" points="952,12 994.3,30.7 958.2,52.2 "/>
<polygon class="st4" points="380,79 429.7,49.7 449.4,108.7 "/>
<polygon class="st6" points="192,73 241.7,43.7 261.4,102.7 "/>
<polygon class="st4" points="1570,56 1619.7,26.7 1639.4,85.7 "/>
<polygon class="st0" points="1130.3,50.7 1173.5,43.4 1156.2,79.1 "/>
<polygon class="st0" points="747.2,97 728.5,57.4 767.6,64.4 "/>
<polygon class="st0" points="1834.6,77.5 1791.4,84.5 1808.9,48.9 "/>
<polygon class="st7" points="521,52.8 552.6,66.9 525.7,82.9 "/>
<polygon class="st8" points="1094,57.8 1125.6,71.9 1098.7,87.9 "/>
<polygon class="st5" points="44,29.8 75.6,43.9 48.7,59.9 "/>
<polygon class="st9" points="1562.4,65.5 1583.7,38.3 1592.7,68.3 "/>
<circle class="st4" cx="1136" cy="730.7" r="19.5"/>
<path d="M1125.6,700.2c9.7,0,17.7,7.9,17.7,17.7c0,9.7-7.9,17.7-17.7,17.7s-17.7-7.9-17.7-17.7
	C1107.9,708.1,1115.9,700.2,1125.6,700.2 M1125.6,695.3c-12.4,0-22.5,10.1-22.5,22.5c0,12.4,10.1,22.5,22.5,22.5
	c12.4,0,22.5-10.1,22.5-22.5C1148.1,705.4,1138,695.3,1125.6,695.3L1125.6,695.3z"/>
<circle class="st4" cx="1904" cy="57.7" r="19.5"/>
<circle class="st0" cx="217.2" cy="89.9" r="9.8"/>
<circle class="st0" cx="1414.2" cy="79.9" r="9.8"/>
<circle class="st4" cx="1230.2" cy="72.9" r="9.8"/>
<circle class="st7" cx="889.2" cy="78.9" r="9.8"/>
<circle class="st4" cx="1746.2" cy="31.9" r="9.8"/>
<ellipse transform="matrix(1.147599e-02 -0.9999 0.9999 1.147599e-02 313.6566 491.1351)" class="st8" cx="405.2" cy="86.9" rx="9.8" ry="9.8"/>
<ellipse transform="matrix(1.147599e-02 -0.9999 0.9999 1.147599e-02 815.9866 971.2632)" class="st8" cx="899.2" cy="72.9" rx="9.8" ry="9.8"/>
<path d="M1893.6,27.2c9.7,0,17.7,7.9,17.7,17.7s-7.9,17.7-17.7,17.7s-17.7-7.9-17.7-17.7S1883.9,27.2,1893.6,27.2 M1893.6,22.3
	c-12.4,0-22.5,10.1-22.5,22.5s10.1,22.5,22.5,22.5c12.4,0,22.5-10.1,22.5-22.5S1906,22.3,1893.6,22.3L1893.6,22.3z"/>
<ellipse transform="matrix(0.3816 -0.9243 0.9243 0.3816 379.9057 576.9556)" class="st4" cx="621.1" cy="4.6" rx="19.5" ry="19.5"/>
<path class="st0" d="M589,2.5c3.7-9,14.1-13.3,23.1-9.6S625.4,7,621.7,16s-14.1,13.3-23.1,9.6S585.3,11.5,589,2.5 M584.5,0.7
	c-4.7,11.5,0.7,24.7,12.2,29.4c11.5,4.7,24.7-0.7,29.4-12.2c4.7-11.5-0.7-24.7-12.2-29.4S589.3-10.8,584.5,0.7L584.5,0.7z"/>
</svg>
