<?xml version="1.0" encoding="utf-8"?>
<!-- Generator: Adobe Illustrator 21.0.0, SVG Export Plug-In . SVG Version: 6.00 Build 0)  -->
<svg version="1.1" id="Layer_1" xmlns="http://www.w3.org/2000/svg" xmlns:xlink="http://www.w3.org/1999/xlink" x="0px" y="0px"
	 viewBox="0 0 242.5 229" style="enable-background:new 0 0 242.5 229;" xml:space="preserve">
<style type="text/css">
	.st0{opacity:0.1;enable-background:new    ;}
	.st1{enable-background:new    ;}
	.st2{fill:#FFFFFF;}
	.st3{opacity:0.5;}
	.st4{fill:#F9E42B;}
</style>
<g class="st0">
	<rect y="0" width="229" height="229"/>
</g>
<g class="st1">
	<path class="st2" d="M110.9,76.1c0,1.3-0.1,2.5-0.3,3.7c-0.2,1.2-0.6,2.3-1.3,3.2s-1.5,1.7-2.7,2.2c-1.2,0.6-2.7,0.8-4.5,0.8
		c-2.2,0-4-0.5-5.5-1.6c-1.5-1-2.5-2.7-2.9-4.9l5.6-1.4c0.1,0.7,0.4,1.2,0.9,1.7s1.1,0.7,1.8,0.7c0.7,0,1.2-0.2,1.6-0.5
		c0.4-0.4,0.7-0.8,0.9-1.3c0.2-0.5,0.3-1.1,0.3-1.7s0.1-1.2,0.1-1.7V57.7h6.1L110.9,76.1L110.9,76.1z"/>
	<path class="st2" d="M118.4,57.7h18.8v5.6h-12.7v5.1h12V74h-12v5.6h13.4v5.6h-19.5C118.4,85.2,118.4,57.7,118.4,57.7z"/>
	<path class="st2" d="M158.4,64.5c-0.5-0.6-1.2-1.1-2-1.4c-0.8-0.3-1.6-0.4-2.4-0.4c-0.4,0-0.9,0.1-1.4,0.2
		c-0.5,0.1-0.9,0.3-1.3,0.5c-0.4,0.2-0.8,0.5-1,0.9c-0.3,0.4-0.4,0.8-0.4,1.3c0,0.8,0.3,1.5,0.9,1.9c0.6,0.4,1.4,0.8,2.4,1.1
		c0.9,0.3,2,0.6,3.1,0.9s2.1,0.8,3.1,1.3c0.9,0.6,1.7,1.3,2.4,2.3s0.9,2.2,0.9,3.9c0,1.5-0.3,2.9-0.9,4c-0.6,1.1-1.3,2.1-2.3,2.8
		c-1,0.8-2.1,1.3-3.4,1.7c-1.3,0.4-2.6,0.5-4.1,0.5c-1.8,0-3.5-0.3-5-0.8s-3-1.4-4.3-2.7l4.3-4.8c0.6,0.8,1.4,1.5,2.4,1.9
		c0.9,0.5,1.9,0.7,2.9,0.7c0.5,0,1-0.1,1.5-0.2s1-0.3,1.4-0.5s0.7-0.5,1-0.9s0.4-0.8,0.4-1.3c0-0.8-0.3-1.5-1-2
		c-0.6-0.5-1.4-0.9-2.4-1.2c-1-0.3-2-0.7-3.1-1s-2.2-0.8-3.1-1.4c-1-0.6-1.8-1.3-2.4-2.3c-0.6-0.9-1-2.2-1-3.7s0.3-2.8,0.9-3.9
		c0.6-1.1,1.4-2.1,2.3-2.8c1-0.8,2.1-1.3,3.4-1.7c1.3-0.4,2.6-0.6,3.9-0.6c1.6,0,3.1,0.2,4.5,0.7c1.5,0.4,2.8,1.2,3.9,2.2
		L158.4,64.5z"/>
	<path class="st2" d="M182.7,64.5c-0.5-0.6-1.2-1.1-2-1.4c-0.8-0.3-1.6-0.4-2.4-0.4c-0.4,0-0.9,0.1-1.4,0.2
		c-0.5,0.1-0.9,0.3-1.3,0.5c-0.4,0.2-0.8,0.5-1,0.9c-0.3,0.4-0.4,0.8-0.4,1.3c0,0.8,0.3,1.5,0.9,1.9c0.6,0.4,1.4,0.8,2.4,1.1
		c0.9,0.3,2,0.6,3.1,0.9s2.1,0.8,3.1,1.3c0.9,0.6,1.7,1.3,2.4,2.3s0.9,2.2,0.9,3.9c0,1.5-0.3,2.9-0.9,4c-0.6,1.1-1.3,2.1-2.3,2.8
		c-1,0.8-2.1,1.3-3.4,1.7c-1.3,0.4-2.6,0.5-4.1,0.5c-1.8,0-3.5-0.3-5-0.8s-3-1.4-4.3-2.7l4.3-4.8c0.6,0.8,1.4,1.5,2.4,1.9
		c0.9,0.5,1.9,0.7,2.9,0.7c0.5,0,1-0.1,1.5-0.2s1-0.3,1.4-0.5s0.7-0.5,1-0.9s0.4-0.8,0.4-1.3c0-0.8-0.3-1.5-1-2
		c-0.6-0.5-1.4-0.9-2.4-1.2c-1-0.3-2-0.7-3.1-1s-2.2-0.8-3.1-1.4c-1-0.6-1.8-1.3-2.4-2.3c-0.6-0.9-1-2.2-1-3.7s0.3-2.8,0.9-3.9
		c0.6-1.1,1.4-2.1,2.3-2.8c1-0.8,2.1-1.3,3.4-1.7c1.3-0.4,2.6-0.6,3.9-0.6c1.6,0,3.1,0.2,4.5,0.7c1.5,0.4,2.8,1.2,3.9,2.2
		L182.7,64.5z"/>
</g>
<g class="st3">
	<g class="st1">
		<path class="st2" d="M32.4,96.5h9.1c2.2,0,4.3,0.2,6.3,0.7s3.7,1.3,5.2,2.4s2.7,2.5,3.5,4.3c0.9,1.8,1.3,3.9,1.3,6.4
			c0,2.2-0.4,4.2-1.3,5.9c-0.8,1.7-2,3.1-3.4,4.3c-1.4,1.2-3.1,2-5,2.6s-3.8,0.9-5.9,0.9h-9.9V96.5H32.4z M38.5,118.5h3.2
			c1.4,0,2.7-0.1,3.9-0.4s2.3-0.8,3.1-1.4c0.9-0.7,1.6-1.5,2.1-2.6s0.8-2.4,0.8-4c0-1.4-0.3-2.5-0.8-3.5s-1.2-1.8-2-2.5
			c-0.9-0.6-1.9-1.1-3-1.5c-1.2-0.3-2.4-0.5-3.6-0.5h-3.6v16.4H38.5z"/>
		<path class="st2" d="M64.2,96.5H83v5.6H70.3v5.1h12v5.6h-12v5.6h13.4v5.6H64.2V96.5z"/>
		<path class="st2" d="M104.2,103.2c-0.5-0.6-1.2-1.1-2-1.4s-1.6-0.4-2.4-0.4c-0.4,0-0.9,0.1-1.4,0.2s-0.9,0.3-1.3,0.5
			s-0.8,0.5-1,0.9c-0.3,0.4-0.4,0.8-0.4,1.3c0,0.8,0.3,1.5,0.9,1.9s1.4,0.8,2.4,1.1c0.9,0.3,2,0.6,3.1,0.9s2.1,0.8,3.1,1.3
			c0.9,0.6,1.7,1.3,2.4,2.3s0.9,2.2,0.9,3.9c0,1.5-0.3,2.9-0.9,4s-1.3,2.1-2.3,2.8c-1,0.8-2.1,1.3-3.4,1.7c-1.3,0.4-2.6,0.5-4.1,0.5
			c-1.8,0-3.5-0.3-5-0.8s-3-1.4-4.3-2.7l4.3-4.8c0.6,0.8,1.4,1.5,2.4,1.9c0.9,0.5,1.9,0.7,2.9,0.7c0.5,0,1-0.1,1.5-0.2
			s1-0.3,1.4-0.5s0.7-0.5,1-0.9s0.4-0.8,0.4-1.3c0-0.8-0.3-1.5-1-2c-0.6-0.5-1.4-0.9-2.4-1.2c-1-0.3-2-0.7-3.1-1s-2.2-0.8-3.1-1.4
			c-1-0.6-1.8-1.3-2.4-2.3c-0.6-0.9-1-2.2-1-3.7s0.3-2.8,0.9-3.9s1.4-2.1,2.3-2.8s2.1-1.3,3.4-1.7c1.3-0.4,2.6-0.6,3.9-0.6
			c1.6,0,3.1,0.2,4.5,0.7c1.5,0.4,2.8,1.2,3.9,2.2L104.2,103.2z"/>
		<path class="st2" d="M114.8,96.5h6.1v27.6h-6.1V96.5z"/>
		<path class="st2" d="M153.5,122.1c-1.8,0.9-3.7,1.6-5.6,2c-2,0.4-3.9,0.6-6,0.6c-2.2,0-4.1-0.3-6-1c-1.8-0.7-3.4-1.6-4.7-2.9
			s-2.4-2.8-3.1-4.6c-0.7-1.8-1.1-3.8-1.1-6s0.4-4.2,1.1-6s1.8-3.3,3.1-4.6c1.3-1.3,2.9-2.2,4.7-2.9c1.8-0.7,3.8-1,6-1
			s4.2,0.3,6.1,0.8c1.9,0.5,3.5,1.5,4.9,2.8l-4.3,4.7c-0.8-0.9-1.8-1.5-2.8-2c-1-0.4-2.3-0.7-3.9-0.7c-1.3,0-2.5,0.2-3.5,0.7
			c-1.1,0.4-2,1.1-2.7,1.9c-0.8,0.8-1.3,1.7-1.7,2.8c-0.4,1.1-0.6,2.3-0.6,3.5c0,1.3,0.2,2.5,0.6,3.6c0.4,1.1,1,2,1.7,2.8
			c0.8,0.8,1.7,1.4,2.7,1.9c1.1,0.4,2.2,0.7,3.5,0.7s2.5-0.1,3.4-0.4s1.7-0.6,2.3-0.9v-4.5h-5v-5.6h10.8v14.3H153.5z"/>
		<path class="st2" d="M160.8,96.5h8.3l11.7,19.2h0.1V96.5h6.1v27.6h-8l-12.1-19.7h-0.1v19.7h-6.1V96.5H160.8z"/>
	</g>
</g>
<g class="st1">
	<path class="st2" d="M114.5,138.9h-7.9v-5.4h21.8v5.4h-7.9v22.2h-6.1v-22.2H114.5z"/>
	<path class="st2" d="M139,133.5h5l12,27.6h-6.9l-2.4-5.8H136l-2.3,5.8H127L139,133.5z M141.3,141.5l-3.4,8.6h6.7L141.3,141.5z"/>
	<path class="st2" d="M160.8,133.5h8.3l11.7,19.2h0.1v-19.2h6.1v27.6h-8l-12.1-19.7h-0.1v19.7h-6.1v-27.6H160.8z"/>
</g>
<g>
	<polygon class="st4" points="28.4,146.1 79.9,168.9 36,195 	"/>
</g>
<g>
	<path d="M26.1,216.2L17.2,159l60.1,26.7L26.1,216.2z M23.6,167.3l6.3,40.8l36.6-21.7L23.6,167.3z"/>
</g>
<g>
	<circle class="st4" cx="226.5" cy="46.5" r="16"/>
</g>
<g>
	<path d="M218,21.5c8,0,14.5,6.5,14.5,14.5S226,50.5,218,50.5S203.5,44,203.5,36S210,21.5,218,21.5 M218,17.5
		c-10.2,0-18.5,8.3-18.5,18.5s8.3,18.5,18.5,18.5s18.5-8.3,18.5-18.5S228.2,17.5,218,17.5L218,17.5z"/>
</g>
</svg>
