<?xml version="1.0" encoding="utf-8"?>
<!-- Generator: Adobe Illustrator 21.0.0, SVG Export Plug-In . SVG Version: 6.00 Build 0)  -->
<svg version="1.1" id="Layer_1" xmlns="http://www.w3.org/2000/svg" xmlns:xlink="http://www.w3.org/1999/xlink" x="0px" y="0px"
	 viewBox="0 0 242.5 229" style="enable-background:new 0 0 242.5 229;" xml:space="preserve">
<style type="text/css">
	.st0{fill:#FFFFFF;}
	.st1{font-family:'Avenir-Black';}
	.st2{font-size:39px;}
	.st3{letter-spacing:1;}
	.st4{fill:#F9E42B;}
	.st5{fill:none;stroke:#FFFFFF;stroke-width:5;stroke-miterlimit:10;}
</style>
<rect width="229" height="229"/>
<text transform="matrix(1 0 0 1 93.1256 85.3311)" class="st0 st1 st2 st3">JESS</text>
<g>
	<text transform="matrix(1 0 0 1 31.9411 124.0811)" class="st4 st1 st2 st3">DESIGN</text>
</g>
<text transform="matrix(1 0 0 1 102.7975 161.0811)" class="st0 st1 st2 st3">TAN</text>
<polygon class="st4" points="28.4,146.1 79.9,168.9 36,195 "/>
<polygon class="st5" points="20.4,163.2 71.9,186.1 28,212.2 "/>
<circle class="st4" cx="226.5" cy="46.5" r="16"/>
<path class="st0" d="M218,21.5c8,0,14.5,6.5,14.5,14.5S226,50.5,218,50.5S203.5,44,203.5,36S210,21.5,218,21.5 M218,17.5
	c-10.2,0-18.5,8.3-18.5,18.5s8.3,18.5,18.5,18.5s18.5-8.3,18.5-18.5S228.2,17.5,218,17.5L218,17.5z"/>
</svg>
