<?xml version="1.0" encoding="utf-8"?>
<!-- Generator: Adobe Illustrator 21.0.0, SVG Export Plug-In . SVG Version: 6.00 Build 0)  -->
<svg version="1.1" id="Layer_1" xmlns="http://www.w3.org/2000/svg" xmlns:xlink="http://www.w3.org/1999/xlink" x="0px" y="0px"
	 viewBox="0 0 242.5 229" style="enable-background:new 0 0 242.5 229;" xml:space="preserve">
<style type="text/css">
	.st0{fill:#3427FF;}
	.st1{fill:#FFFFFF;}
	.st2{font-family:'Avenir-Black';}
	.st3{font-size:39px;}
	.st4{letter-spacing:3;}
	.st5{opacity:0.5;}
	.st6{fill:#F9E42B;}
	.st7{fill:none;stroke:#000000;stroke-width:5;stroke-miterlimit:10;}
</style>
<rect x="1" class="st0" width="229" height="229"/>
<text transform="matrix(1 0 0 1 94.1256 85.3311)" class="st1 st2 st3 st4">JESS</text>
<g class="st5">
	<text transform="matrix(1 0 0 1 32.9411 124.0811)" class="st1 st2 st3 st4">DESIGN</text>
</g>
<text transform="matrix(1 0 0 1 103.7975 161.0811)" class="st1 st2 st3 st4">TAN</text>
<polygon class="st6" points="29.4,146.1 80.9,168.9 37,195 "/>
<polygon class="st7" points="21.4,163.2 72.9,186.1 29,212.2 "/>
<circle class="st6" cx="227.5" cy="46.5" r="16"/>
<path d="M219,21.5c8,0,14.5,6.5,14.5,14.5S227,50.5,219,50.5S204.5,44,204.5,36S211,21.5,219,21.5 M219,17.5
	c-10.2,0-18.5,8.3-18.5,18.5s8.3,18.5,18.5,18.5c10.2,0,18.5-8.3,18.5-18.5S229.2,17.5,219,17.5L219,17.5z"/>
</svg>
