<?xml version="1.0" encoding="utf-8"?>
<!-- Generator: Adobe Illustrator 21.0.0, SVG Export Plug-In . SVG Version: 6.00 Build 0)  -->
<svg version="1.0" id="Layer_1" xmlns="http://www.w3.org/2000/svg" xmlns:xlink="http://www.w3.org/1999/xlink" x="0px" y="0px"
	 viewBox="0 0 862 55.3" style="enable-background:new 0 0 862 55.3;" xml:space="preserve">
<style type="text/css">
	.st0{fill:#FFFFFF;}
	.st1{fill:#C7D2F9;}
</style>
<path class="st0" d="M0.4,47.8l5.2-5.1c0.6-0.5,1.5-0.6,2.1,0c0.9,0.9,1.8,1.6,3.9,1.6c2.2,0,4.5-2,4.5-5.8V2.2
	c0-0.8,0.6-1.5,1.5-1.5H27c0.8,0,1.5,0.7,1.5,1.5v36.3c0,10.7-7.5,16.8-16.5,16.8c-6.7,0-10.4-4-11.7-5.6
	C-0.1,49.1-0.1,48.3,0.4,47.8z"/>
<path class="st0" d="M63.6,2.2c0-0.8,0.6-1.5,1.5-1.5h31.8c0.8,0,1.5,0.7,1.5,1.5v8.4c0,0.8-0.6,1.5-1.5,1.5H75.5v9.5H93
	c0.8,0,1.5,0.7,1.5,1.5v8.4c0,0.8-0.7,1.5-1.5,1.5H75.5v10.4h21.3c0.8,0,1.5,0.7,1.5,1.5v8.4c0,0.8-0.6,1.5-1.5,1.5H65
	c-0.8,0-1.5-0.7-1.5-1.5L63.6,2.2L63.6,2.2z"/>
<path class="st0" d="M128.5,47.2l3.6-6.4c0.6-1,2.1-0.8,2.6-0.5c0.3,0.2,5.8,4.2,10.9,4.2c3.1,0,5.3-1.9,5.3-4.6
	c0-3.2-2.7-5.7-7.9-7.8c-6.6-2.6-14.9-7.8-14.9-17c0-7.6,5.9-15.3,17.7-15.3c8,0,14.1,4.1,16.4,5.8c0.9,0.5,0.8,1.9,0.5,2.5
	l-3.9,5.9c-0.5,0.8-1.9,1.5-2.6,1c-0.7-0.4-6.3-4.6-11-4.6c-2.8,0-4.8,1.8-4.8,3.9c0,2.8,2.3,5,8.4,7.5c6,2.4,15.5,7.1,15.5,17.5
	c0,7.9-6.8,15.9-18.1,15.9c-10,0-15.5-4.1-17.3-5.9C128.2,48.6,127.9,48.3,128.5,47.2z"/>
<path class="st0" d="M193.7,47.2l3.6-6.4c0.6-1,2.1-0.8,2.6-0.5c0.3,0.2,5.8,4.2,10.9,4.2c3.1,0,5.3-1.9,5.3-4.6
	c0-3.2-2.7-5.7-7.9-7.8c-6.6-2.6-14.9-7.8-14.9-17c0-7.6,5.9-15.3,17.7-15.3c8,0,14.1,4.1,16.4,5.8c0.9,0.5,0.8,1.9,0.5,2.5L224,14
	c-0.5,0.8-1.9,1.5-2.6,1c-0.7-0.4-6.3-4.6-11-4.6c-2.8,0-4.8,1.8-4.8,3.9c0,2.8,2.3,5,8.4,7.5c6,2.4,15.5,7.1,15.5,17.5
	c0,7.9-6.8,15.9-18.1,15.9c-10,0-15.5-4.1-17.3-5.9C193.3,48.6,193.1,48.3,193.7,47.2z"/>
<path class="st1" d="M261.9,2.2c0-0.8,0.6-1.5,1.4-1.5H282c14.8,0,27,12.1,27,26.8c0,14.9-12.1,27-27,27h-18.7
	c-0.8,0-1.4-0.7-1.4-1.5V2.2z M281.3,43.2c8.7,0,15-6.8,15-15.6c0-8.7-6.3-15.5-15-15.5h-7.4v31.1H281.3z"/>
<path class="st1" d="M341.4,2.2c0-0.8,0.6-1.5,1.5-1.5h31.8c0.8,0,1.5,0.7,1.5,1.5v8.4c0,0.8-0.6,1.5-1.5,1.5h-21.3v9.5h17.5
	c0.8,0,1.5,0.7,1.5,1.5v8.4c0,0.8-0.7,1.5-1.5,1.5h-17.5v10.4h21.3c0.8,0,1.5,0.7,1.5,1.5v8.4c0,0.8-0.6,1.5-1.5,1.5h-31.8
	c-0.8,0-1.5-0.7-1.5-1.5V2.2z"/>
<path class="st1" d="M406.4,47.2l3.6-6.4c0.6-1,2.1-0.8,2.6-0.5c0.3,0.2,5.8,4.2,10.9,4.2c3.1,0,5.3-1.9,5.3-4.6
	c0-3.2-2.7-5.7-7.9-7.8c-6.6-2.6-14.9-7.8-14.9-17C406,7.7,412,0,423.8,0c8,0,14.1,4.1,16.4,5.8c0.9,0.5,0.8,1.9,0.5,2.5l-3.9,5.9
	c-0.5,0.8-1.9,1.5-2.6,1c-0.7-0.4-6.3-4.6-11-4.6c-2.8,0-4.8,1.8-4.8,3.9c0,2.8,2.3,5,8.4,7.5c6,2.4,15.5,7.1,15.5,17.5
	c0,7.9-6.8,15.9-18.1,15.9c-10,0-15.5-4.1-17.3-5.9C406,48.6,405.8,48.3,406.4,47.2z"/>
<path class="st1" d="M474.6,2.2c0-0.8,0.7-1.5,1.5-1.5h9.2c0.8,0,1.5,0.7,1.5,1.5v50.9c0,0.8-0.7,1.5-1.5,1.5h-9.2
	c-0.8,0-1.5-0.7-1.5-1.5V2.2z"/>
<path class="st1" d="M546.8,0.1c6.5,0,13.5,2.7,18.7,7.2c0.7,0.5,0.8,1.5,0.2,2.1l-6.1,6.5c-0.6,0.5-1.5,0.5-2.1,0.1
	c-2.9-2.7-6.3-3.7-10.1-3.7c-8.4,0-15.1,7.1-15.1,15.5s6.8,15.3,15.2,15.3c2.2,0,4.5-0.3,6.8-1.2v-4.5h-4.8c-0.8,0-1.5-0.6-1.5-1.4
	v-7.6c0-0.8,0.6-1.5,1.5-1.5H565c0.8,0,1.4,0.7,1.4,1.5l0.1,20.7c0,0.4-0.3,1-0.6,1.2c0,0-7.9,5-19.1,5c-15.3,0-27.6-12.1-27.6-27.5
	S531.5,0.1,546.8,0.1z"/>
<path class="st1" d="M600,1.4c0-0.8,0.7-1.4,1.5-1.4h1.9L634,29.5h0.1V2.2c0-0.8,0.6-1.5,1.5-1.5h9.2c0.8,0,1.5,0.7,1.5,1.5v51.7
	c0,0.8-0.7,1.4-1.5,1.4h-1.2c-0.2,0-0.8-0.2-1-0.4l-30.3-30.5h-0.1v28.7c0,0.8-0.6,1.5-1.5,1.5h-9.1c-0.8,0-1.5-0.7-1.5-1.5L600,1.4
	z"/>
<path class="st1" d="M689.4,12.1h-11c-0.8,0-1.5-0.7-1.5-1.5V2.2c0-0.8,0.6-1.5,1.5-1.5h34.1c0.8,0,1.5,0.7,1.5,1.5v8.4
	c0,0.8-0.6,1.5-1.5,1.5h-11v41c0,0.8-0.7,1.5-1.5,1.5h-9.2c-0.8,0-1.5-0.7-1.5-1.5v-41H689.4z"/>
<path class="st1" d="M735,52.6l24-51.7c0.2-0.5,0.8-0.8,1.3-0.8h0.8c0.5,0,1.1,0.4,1.3,0.8l24,51.7c0.5,1-0.2,2-1.3,2h-8.5
	c-1.4,0-2-0.5-2.7-1.9l-2.8-6.1h-20.9l-2.8,6.1c-0.4,0.9-1.2,1.8-2.8,1.8h-8.5C735.2,54.5,734.6,53.5,735,52.6z M766.6,36.1
	l-5.8-12.7h-0.1l-5.8,12.7H766.6z"/>
<path class="st1" d="M815.8,1.4c0-0.8,0.7-1.4,1.5-1.4h1.9l30.7,29.5h0.1V2.2c0-0.8,0.6-1.5,1.5-1.5h9.2c0.8,0,1.5,0.7,1.5,1.5v51.7
	c0,0.8-0.7,1.4-1.5,1.4h-1.2c-0.2,0-0.8-0.2-1-0.4L828,24.4h-0.1v28.7c0,0.8-0.6,1.5-1.5,1.5h-9.1c-0.8,0-1.5-0.7-1.5-1.5L815.8,1.4
	z"/>
</svg>
