<?xml version="1.0" encoding="utf-8"?>
<!-- Generator: Adobe Illustrator 21.0.0, SVG Export Plug-In . SVG Version: 6.00 Build 0)  -->
<svg version="1.0" id="Layer_1" xmlns="http://www.w3.org/2000/svg" xmlns:xlink="http://www.w3.org/1999/xlink" x="0px" y="0px"
	 viewBox="0 0 838.9 209" style="enable-background:new 0 0 838.9 209;" xml:space="preserve">
<style type="text/css">
	.st0{fill:#F9E42B;}
	.st1{fill:#3427FF;}
</style>
<g>
	<g>
		<g>
			<circle class="st0" cx="140.1" cy="104.5" r="104.5"/>
		</g>
	</g>
</g>
<g>
	<g>
		<g>
			<path class="st1" d="M164.2,123c-0.7,5.6-1.9,11-3.5,16.1s-4.1,9.6-7.3,13.3c-3.3,3.7-7.6,6.5-13,8.3s-12.2,2.2-20.5,1.2
				c-9.6-1.2-17.5-4.5-23.5-9.9c-6.1-5.4-9.5-13.1-10.2-23.1l25.3-3c0,3,1,5.7,3.1,8.1c2.1,2.4,4.6,3.7,7.6,4.1
				c3.1,0.4,5.6-0.1,7.5-1.4c1.9-1.3,3.4-3.1,4.5-5.3s1.9-4.6,2.4-7.3c0.5-2.7,0.9-5.1,1.2-7.4l9.7-78l26.8,3.3L164.2,123z"/>
		</g>
	</g>
</g>
<g>
	<g>
		<g>
			<path d="M227.3,62c-8.7,0-15.8-7.1-15.8-15.8s7.1-15.8,15.8-15.8s15.8,7.1,15.8,15.8S236,62,227.3,62z M227.3,35.5
				c-5.9,0-10.8,4.8-10.8,10.8S221.4,57,227.3,57s10.8-4.8,10.8-10.8S233.2,35.5,227.3,35.5z"/>
		</g>
	</g>
</g>
<g>
	<g>
		<g>
			<path d="M56.8,122.3L0,111.5l41.8-47.7L56.8,122.3z M9.5,108.2l40.5,7.7L39.3,74.2L9.5,108.2z"/>
		</g>
	</g>
</g>
<g>
	<g>
		<g>
			<path d="M213.6,155.5c-0.5,0-0.9-0.1-1.3-0.4c-1.2-0.7-1.5-2.3-0.8-3.4c17.3-27.9,14.7-62.1,14.6-62.5c-0.1-1.4,0.9-2.6,2.3-2.7
				c1.4-0.1,2.6,0.9,2.7,2.3c0.1,1.5,2.9,36.2-15.4,65.5C215.2,155.1,214.4,155.5,213.6,155.5z"/>
		</g>
	</g>
</g>
<g>
	<path d="M267.6,89.8h28.9v8.6H277v7.9h18.4v8.6H277v8.6h20.6v8.6h-30V89.8z"/>
	<path d="M338.1,100.2c-0.8-1-1.8-1.7-3.1-2.1c-1.3-0.5-2.5-0.7-3.7-0.7c-0.7,0-1.4,0.1-2.1,0.2c-0.7,0.2-1.4,0.4-2,0.8
		c-0.6,0.3-1.2,0.8-1.6,1.4s-0.6,1.2-0.6,2c0,1.3,0.5,2.3,1.4,2.9c1,0.7,2.2,1.3,3.6,1.7c1.5,0.5,3,1,4.7,1.4c1.7,0.5,3.3,1.2,4.7,2
		c1.5,0.9,2.7,2.1,3.6,3.5c1,1.5,1.4,3.5,1.4,5.9s-0.4,4.4-1.3,6.2c-0.9,1.8-2.1,3.2-3.6,4.4s-3.2,2-5.2,2.6s-4.1,0.8-6.3,0.8
		c-2.8,0-5.3-0.4-7.7-1.3s-4.6-2.2-6.6-4.1l6.7-7.3c1,1.3,2.2,2.3,3.6,3c1.5,0.7,3,1.1,4.5,1.1c0.8,0,1.5-0.1,2.3-0.3
		s1.5-0.5,2.1-0.8c0.6-0.4,1.1-0.8,1.5-1.4s0.6-1.2,0.6-2c0-1.3-0.5-2.3-1.5-3s-2.2-1.4-3.7-1.9s-3.1-1-4.8-1.6
		c-1.7-0.5-3.3-1.2-4.8-2.1s-2.7-2-3.7-3.5c-1-1.4-1.5-3.3-1.5-5.7c0-2.3,0.5-4.3,1.4-6s2.1-3.2,3.6-4.3c1.5-1.2,3.2-2,5.2-2.6
		s4-0.9,6.1-0.9c2.4,0,4.7,0.3,7,1c2.2,0.7,4.3,1.8,6.1,3.4L338.1,100.2z"/>
	<path d="M384.5,100.2c-0.8-1-1.8-1.7-3.1-2.1c-1.3-0.5-2.5-0.7-3.7-0.7c-0.7,0-1.4,0.1-2.1,0.2c-0.7,0.2-1.4,0.4-2,0.8
		c-0.6,0.3-1.2,0.8-1.6,1.4s-0.6,1.2-0.6,2c0,1.3,0.5,2.3,1.4,2.9c1,0.7,2.2,1.3,3.6,1.7c1.5,0.5,3,1,4.7,1.4c1.7,0.5,3.3,1.2,4.7,2
		c1.5,0.9,2.7,2.1,3.6,3.5c1,1.5,1.4,3.5,1.4,5.9s-0.4,4.4-1.3,6.2c-0.9,1.8-2.1,3.2-3.6,4.4s-3.2,2-5.2,2.6s-4.1,0.8-6.3,0.8
		c-2.8,0-5.3-0.4-7.7-1.3s-4.6-2.2-6.6-4.1l6.7-7.3c1,1.3,2.2,2.3,3.6,3c1.5,0.7,3,1.1,4.5,1.1c0.8,0,1.5-0.1,2.3-0.3
		s1.5-0.5,2.1-0.8c0.6-0.4,1.1-0.8,1.5-1.4s0.6-1.2,0.6-2c0-1.3-0.5-2.3-1.5-3s-2.2-1.4-3.7-1.9s-3.1-1-4.8-1.6
		c-1.7-0.5-3.3-1.2-4.8-2.1s-2.7-2-3.7-3.5c-1-1.4-1.5-3.3-1.5-5.7c0-2.3,0.5-4.3,1.4-6s2.1-3.2,3.6-4.3c1.5-1.2,3.2-2,5.2-2.6
		s4-0.9,6.1-0.9c2.4,0,4.7,0.3,7,1c2.2,0.7,4.3,1.8,6.1,3.4L384.5,100.2z"/>
</g>
<g>
	<path d="M709.4,98.1h-12.1v-8.3h33.6v8.3h-12.1v34.2h-9.4V98.1z"/>
	<path d="M756.2,89.8h7.7l18.5,42.5h-10.6l-3.7-9h-16.5l-3.5,9h-10.3L756.2,89.8z M759.8,102.2l-5.2,13.2H765L759.8,102.2z"/>
	<path d="M798.7,89.8h12.7l18.1,29.5h0.1V89.8h9.4v42.5h-12.2L808.3,102H808v30.3h-9.4V89.8H798.7z"/>
</g>
<g>
	<path class="st1" d="M403.2,89.8h14c3.4,0,6.6,0.4,9.7,1.1c3.1,0.8,5.7,2,8,3.7s4.1,3.9,5.4,6.6s2,6,2,9.9c0,3.4-0.7,6.5-2,9.1
		s-3.1,4.8-5.3,6.6c-2.2,1.8-4.7,3.1-7.6,4.1c-2.9,0.9-5.9,1.4-9.1,1.4H403V89.8H403.2z M412.6,123.7h4.9c2.2,0,4.2-0.2,6-0.7
		c1.9-0.4,3.5-1.2,4.8-2.2c1.4-1,2.4-2.4,3.2-4c0.8-1.7,1.2-3.7,1.2-6.1c0-2.1-0.4-3.9-1.2-5.4c-0.8-1.5-1.8-2.8-3.2-3.8
		c-1.3-1-2.9-1.8-4.7-2.3c-1.8-0.5-3.7-0.8-5.6-0.8h-5.5v25.3H412.6z"/>
	<path class="st1" d="M461.2,89.8H490v8.6h-19.5v7.9H489v8.6h-18.4v8.6h20.6v8.6h-30V89.8z"/>
	<path class="st1" d="M531.6,100.2c-0.8-1-1.8-1.7-3.1-2.1c-1.3-0.5-2.5-0.7-3.7-0.7c-0.7,0-1.4,0.1-2.1,0.2c-0.7,0.2-1.4,0.4-2,0.8
		c-0.6,0.3-1.2,0.8-1.6,1.4c-0.4,0.6-0.6,1.2-0.6,2c0,1.3,0.5,2.3,1.4,2.9c1,0.7,2.2,1.3,3.6,1.7c1.5,0.5,3,1,4.7,1.4
		c1.7,0.5,3.3,1.2,4.7,2c1.5,0.9,2.7,2.1,3.6,3.5c1,1.5,1.4,3.5,1.4,5.9s-0.4,4.4-1.3,6.2c-0.9,1.8-2.1,3.2-3.6,4.4s-3.2,2-5.2,2.6
		s-4.1,0.8-6.3,0.8c-2.8,0-5.3-0.4-7.7-1.3s-4.6-2.2-6.6-4.1l6.7-7.3c1,1.3,2.2,2.3,3.6,3c1.5,0.7,3,1.1,4.5,1.1
		c0.8,0,1.5-0.1,2.3-0.3s1.5-0.5,2.1-0.8c0.6-0.4,1.1-0.8,1.5-1.4s0.6-1.2,0.6-2c0-1.3-0.5-2.3-1.5-3s-2.2-1.4-3.7-1.9
		s-3.1-1-4.8-1.6c-1.7-0.5-3.3-1.2-4.8-2.1s-2.7-2-3.7-3.5c-1-1.4-1.5-3.3-1.5-5.7c0-2.3,0.5-4.3,1.4-6s2.1-3.2,3.6-4.3
		c1.5-1.2,3.2-2,5.2-2.6s4-0.9,6.1-0.9c2.4,0,4.7,0.3,7,1c2.2,0.7,4.3,1.8,6.1,3.4L531.6,100.2z"/>
	<path class="st1" d="M557,89.8h9.4v42.5H557V89.8z"/>
	<path class="st1" d="M625.3,129.3c-2.8,1.4-5.6,2.5-8.6,3.1s-6.1,1-9.2,1c-3.3,0-6.4-0.5-9.2-1.6c-2.8-1-5.2-2.5-7.3-4.5
		c-2-1.9-3.6-4.3-4.8-7.1c-1.1-2.8-1.7-5.8-1.7-9.2c0-3.4,0.6-6.5,1.7-9.2c1.1-2.8,2.7-5.1,4.8-7.1c2-1.9,4.5-3.4,7.3-4.5
		c2.8-1,5.9-1.6,9.2-1.6c3.4,0,6.5,0.4,9.4,1.2c2.9,0.8,5.4,2.2,7.5,4.2l-6.6,7.2c-1.3-1.3-2.7-2.3-4.3-3s-3.6-1-6-1
		c-2,0-3.8,0.3-5.4,1c-1.6,0.7-3,1.6-4.2,2.9c-1.2,1.2-2.1,2.7-2.7,4.4c-0.6,1.7-0.9,3.5-0.9,5.5s0.3,3.8,0.9,5.5
		c0.6,1.7,1.5,3.1,2.7,4.3c1.2,1.2,2.6,2.2,4.2,2.9c1.6,0.7,3.4,1,5.4,1s3.8-0.2,5.3-0.7s2.7-0.9,3.5-1.4v-6.9h-7.6v-8.6h16.6
		L625.3,129.3L625.3,129.3z"/>
	<path class="st1" d="M645.6,89.8h12.7l18.1,29.5h0.1V89.8h9.4v42.5h-12.2L655.2,102h-0.1v30.3h-9.4L645.6,89.8L645.6,89.8z"/>
</g>
</svg>
