<svg width="489" height="226" viewBox="0 0 489 226" xmlns="http://www.w3.org/2000/svg"><title>Slice 1</title><g fill="none" fill-rule="evenodd"><g fill="#000"><g><path d="M488.986 224.434c-.514-.04-1.027-.113-1.54-.113-13.2-.006-26.4.006-39.598-.008-9.638-.01-19.275-.05-28.913-.078h-1.266c1.356-.465 2.438-.754 3.45-1.2 3.322-1.458 5.015-4.07 5.248-7.66.03-.478.016-.96.016-1.438 0-20.678-.062-41.356.046-62.034.025-4.87-2.56-7.16-5.965-8.336-1.114-.386-2.285-.608-3.518-.93h67.348v19.516c-1.072.4-1.505-.028-1.858-1.067-2.044-5.998-5.354-11.037-11.002-14.295-2.848-1.643-5.91-2.457-9.147-2.493-6.198-.07-12.398-.02-18.6-.018-.153 0-.31.026-.56.05v35.268c4.437-.172 8.93.576 13.25-1.108 3.637-1.418 6.11-4.075 7.616-7.57.99-2.297 1.63-4.748 2.416-7.133.122-.373.194-.763.3-1.18h1.43v35.582h-1.384c-.653-2.103-1.266-4.246-1.987-6.352-1-2.917-2.524-5.515-4.932-7.522-1.99-1.658-4.265-2.746-6.853-2.844-3.26-.123-6.53-.03-9.877-.03v41.02c.16.05.34.155.52.154 6.4-.007 12.802.11 19.195-.07 10.038-.284 16.907-5.583 21.367-14.25 1.23-2.396 2.062-5.013 2.89-7.588.346-1.07.678-1.792 1.906-1.712v25.438zM.105 142.113c2.76-.013 5.518-.037 8.277-.038 11.48-.004 22.96-.002 34.438-.002h1.565v1.757c0 22.64-.02 45.278.018 67.918.007 4.165 1.352 7.812 5.037 10.166 1.188.758 2.587 1.184 3.77 1.708H18.598c.848-.276 1.64-.48 2.388-.787 4.11-1.697 5.92-5.053 6.457-9.23.212-1.658.25-3.35.253-5.024.016-21.198.01-42.397.01-63.598v-1.034c-6.868-.88-13.17.147-18.703 4.522-4.523 3.576-7.685 7.965-8.747 13.722-.02.112-.1.215-.15.322v-20.4zM412.666.753c.21.09.414.2.63.267 2.482.748 4.34 2.22 5.69 4.47 2.92 4.857 7.17 7.99 12.713 9.242 4.91 1.11 7.86 5.18 7.434 10.202-.484 5.685 1.134 10.74 4.93 15.042 3.292 3.73 3.2 8.915-.086 12.636-3.76 4.257-5.324 9.318-4.85 14.96.43 5.083-2.58 9.125-7.55 10.226-5.373 1.19-9.54 4.25-12.403 8.91-2.868 4.668-7.378 6.182-12.424 4.087-5.102-2.118-10.294-2.112-15.39.05-4.83 2.048-9.54.48-12.256-4.032-2.853-4.74-7.058-7.8-12.458-9.015-4.97-1.116-7.978-5.135-7.56-10.22.472-5.727-1.143-10.824-4.995-15.14-3.067-3.438-3.257-8.597-.226-12.068 4.04-4.625 5.745-9.92 5.188-16.027-.402-4.41 2.658-8.484 7-9.47 5.89-1.334 10.37-4.562 13.436-9.78 1.137-1.937 2.843-3.21 4.974-3.918.367-.122.723-.28 1.084-.42h3.6c6.64 3.28 13.28 3.29 19.92 0 1.2-.002 2.4-.002 3.6-.002zM362.1 67.466c-.01.12-.025.24-.035.358-.308 4.054 1.146 6 5.045 6.983 6.38 1.608 11.344 5.22 14.79 10.823 1.927 3.13 4.564 4 7.942 2.605 6.08-2.51 12.233-2.526 18.33-.092 3.687 1.472 6.132.705 8.216-2.622 3.586-5.72 8.708-9.37 15.313-10.845 2.806-.627 4.735-3.053 4.535-5.908-.07-.996-.25-1.997-.2-2.986.29-5.973 2.18-11.32 6.247-15.82 1.93-2.132 1.913-5.293.01-7.45-4.73-5.353-6.705-11.588-6.085-18.682.257-2.946-1.623-5.37-4.516-6.023-6.737-1.52-11.92-5.25-15.49-11.158-1.723-2.848-4.556-3.774-7.604-2.494-6.314 2.65-12.67 2.647-18.984 0-3.008-1.263-5.87-.363-7.534 2.4-3.583 5.95-8.773 9.722-15.558 11.255-2.036.46-3.555 1.606-4.154 3.57-.358 1.175-.29 2.514-.246 3.772.228 6.39-1.643 12.065-5.8 16.92-2.38 2.776-2.414 5.552.005 8.355 4.22 4.892 5.967 10.644 5.776 17.04zM175.71 128.798h-35.383c.23-.11.428-.258.648-.302 5.6-1.134 8.2-5.715 8.36-10.35.266-7.79.213-15.59.275-23.385.003-.336-.12-.71-.29-1.008-5.592-9.778-11.114-19.596-16.832-29.3-2.638-4.474-5.728-8.665-9.363-12.426-2.03-2.1-4.315-3.163-7.333-3.08-6.234.17-12.476.07-18.714.087-.312 0-.622.047-1.092.085v1.448c0 21.48-.03 42.958.042 64.436.008 2.242.346 4.562.99 6.706 1.067 3.547 3.682 5.698 7.242 6.688.38.105.757.222 1.313.386H70.185c.306-.122.557-.26.826-.325 4.75-1.127 7.23-4.354 8.003-8.957.355-2.113.386-4.297.393-6.45.066-21.797.097-43.594.137-65.39v-1.402h70.698c-.86.273-1.42.434-1.968.63-3.314 1.177-4.4 3.576-2.783 6.7 1.613 3.118 3.468 6.113 5.22 9.16 5.042 8.76 10.093 17.513 15.105 26.29.316.552.468 1.275.47 1.92.03 8.28-.06 16.56.074 24.837.035 2.193.463 4.467 1.18 6.54 1.097 3.186 3.576 5.112 6.813 6.038.395.113.782.245 1.356.425zM64.52 141.992c1.193 0 2.387.006 3.58 0 9.237-.052 18.474-.118 27.71-.153 4.437-.02 8.883-.16 13.307.076 6.17.33 12.097 1.68 17.3 5.3 8.437 5.875 8.476 15.79 5.6 21.268-2.37 4.51-6.39 7.105-11.08 8.596-2.875.914-5.904 1.344-8.865 1.986-.33.072-.664.115-1.024.466.26.09.515.21.783.27 3.666.803 7.387 1.406 10.987 2.433 8.18 2.33 12.338 7.456 13.12 15.918.463 5.012.773 10.04 1.22 15.054.12 1.34.37 2.696.765 3.98.93 3.022 2.948 4.583 6.12 4.567 1.933-.01 3.863-.393 6.097-.643-.88.614-1.544 1.32-2.353 1.59-1.96.655-3.958 1.298-5.99 1.598-4.98.734-9.898.43-14.547-1.737-4.646-2.165-7.17-5.9-7.603-10.954-.43-5.014-.508-10.06-1.04-15.062-.293-2.745-.91-5.538-1.902-8.11-1.72-4.46-5.143-7.12-9.988-7.44-3.374-.22-6.775-.042-10.28-.042-.012.27-.047.657-.047 1.044-.003 9.918-.07 19.838.028 29.756.047 4.74 1.625 8.807 6.232 11.04.924.45 1.94.708 2.927 1.06h-34.72c1.045-.41 2.25-.742 3.312-1.33 3.456-1.91 4.91-5.107 5.36-8.855.16-1.344.206-2.71.207-4.066.014-17.236-.095-34.476.05-51.712.082-9.926-5.817-13.874-12.948-15.28-.77-.15-1.55-.245-2.325-.366 0-.087.003-.17.005-.25zm31.915 37.077c2.237 0 4.352.032 6.465-.015.954-.02 1.916-.14 2.855-.314 5.618-1.054 8.856-4.157 9.706-9.626.842-5.408.74-10.842-.448-16.2-1.03-4.65-3.604-7.994-8.51-8.985-1.71-.347-3.48-.507-5.228-.542-1.608-.03-3.223.218-4.84.344v35.337zM198.282 223.754c2.053-.86 4.09-1.567 5.99-2.546 2.54-1.31 3.748-3.36 3.723-6.406-.113-13.678-.05-27.355-.05-41.033 0-7.84-.052-15.68.03-23.515.026-2.542-1.008-4.39-3.132-5.502-2.06-1.078-4.283-1.836-6.303-2.68.194 0 .608.002 1.02 0 7.28-.027 14.558-.032 21.835-.09 4.476-.035 8.953-.27 13.426-.202 5.88.09 11.64.986 16.933 3.74 4.443 2.314 7.92 5.577 9.225 10.617 1.83 7.072-.35 12.906-6.412 17.318-4.46 3.246-9.568 4.875-14.923 5.864-.384.07-.766.155-1.178.5.42.07.836.155 1.257.205 5.257.624 10.446 1.52 15.173 4.084 5.616 3.046 9.69 7.348 10.622 13.925 1.362 9.626-2.137 16.484-11.455 21.495-6.688 3.597-14.02 4.478-21.488 4.45-10.995-.037-21.99-.148-32.984-.228l-1.308.002zm26.46-43.127c-.062.43-.105.584-.105.74-.005 13.274 0 26.548-.025 39.823-.002.86.436 1.02 1.093 1.026 2.832.027 5.672.188 8.494.028 5.634-.317 9.515-3.21 11.09-8.643.857-2.962 1.318-6.083 1.582-9.165.398-4.667.373-9.373-1.283-13.854-1.867-5.047-5.186-8.705-10.73-9.487-3.3-.465-6.684-.328-10.118-.466zm-.115-1.304c3.438-.244 6.727-.235 9.928-.76 4.9-.805 8.062-3.81 8.97-8.74 1.105-5.99.998-12.016-.574-17.93-1.223-4.602-4.233-7.494-9.02-8.09-2.592-.324-5.244-.147-7.868-.22-1.104-.032-1.468.384-1.463 1.546.047 10.866.027 21.735.027 32.603v1.59zM295.178 85.027v41.207h1.354c5.64 0 11.278-.025 16.918.006 10.514.06 17.97-4.912 22.734-14.04 1.538-2.948 2.535-6.18 3.822-9.387h1.188v25.035h-71.6c1.092-.338 2.29-.61 3.408-1.073 3.48-1.442 5.295-4.102 5.52-7.853.027-.48.02-.96.02-1.44v-61.67c0-4.955-1.898-7.487-6.678-8.883-.755-.22-1.523-.397-2.44-.635h67.04v19.413c-.994.325-1.502.11-1.867-.958-1.79-5.244-4.54-9.826-9.15-13.155-3.765-2.717-7.976-3.747-12.516-3.757-5.678-.013-11.357-.003-17.037 0-.196 0-.393.03-.688.056v35.34c2.51 0 5.016.09 7.513-.03 1.583-.08 3.19-.325 4.716-.752 4.602-1.29 7.41-4.564 9.135-8.83.818-2.027 1.435-4.15 1.966-6.275.268-1.07.653-1.458 1.77-1.05v35.48h-1.425c-.578-1.91-1.12-3.86-1.763-5.777-1.137-3.396-2.847-6.418-5.81-8.595-1.853-1.36-3.93-2.24-6.194-2.34-3.267-.146-6.548-.038-9.935-.038zM2.212 128.7v-26.02c.987 2.22 1.796 4.197 2.73 6.11 2.364 4.835 5.127 9.396 9.117 13.11 4.122 3.84 8.928 6.006 14.607 5.907 2.708-.047 5.464-.066 8.107-.572 8.37-1.6 14.04-8.38 14.312-16.875.143-4.43-1.77-7.87-5.335-10.413-3.164-2.26-6.782-3.5-10.453-4.655-5.48-1.723-11.006-3.343-16.37-5.38-6.156-2.337-10.858-6.425-13.608-12.607-2.26-5.078-1.894-10.097.262-14.975 3.576-8.096 10.206-12.585 18.546-14.728 2.184-.56 4.498-.84 6.755-.853 13.555-.078 27.11-.04 40.88-.04C60.627 49.2 55.63 56.478 55.13 67.587c-.28-.47-.432-.712-.57-.96-2.476-4.482-4.96-8.955-8.818-12.46-7.93-7.21-18.44-7.154-25.827-2.92-3.64 2.084-6.25 5.07-7.175 9.298-1.014 4.635.48 8.283 4.48 10.8 3.946 2.486 8.41 3.623 12.858 4.768 5.834 1.502 11.75 2.736 17.228 5.37 4.565 2.197 8.714 4.95 11.49 9.314 4.132 6.495 3.954 13.343 1.184 20.22-3.96 9.827-11.655 15.268-21.683 17.61-7.303 1.706-14.51.932-21.586-1.504-2.104-.725-4.298-1.24-6.486-1.665-3.162-.612-5.987-.058-8.012 3.243zM329.144 142.134h27.497c-2.182.864-4.782 1.646-7.146 2.88-5.728 2.99-8.692 7.713-8.65 14.33.082 12.956.043 25.913.012 38.87-.01 3.718-.295 7.4-1.36 11.016-2.02 6.85-6.303 11.506-12.983 14.028-4.143 1.564-8.434 2.08-12.815 2.1-5.61.026-11.197-.28-16.605-1.913-5.293-1.6-10.052-4.077-13.48-8.646-2.587-3.45-3.652-7.427-4.108-11.6-.256-2.338-.375-4.702-.38-7.056-.035-13.517.003-27.034-.045-40.55-.006-1.66-.203-3.367-.625-4.97-1.067-4.052-3.71-6.705-7.696-8.012-.228-.075-.458-.145-.69-.207-.178-.05-.362-.083-.506-.277h35.425l.02.12c-.52.154-1.046.283-1.556.466-4.457 1.602-6.7 4.96-7.408 9.478-.19 1.218-.245 2.467-.247 3.7-.018 13.56-.056 27.116.012 40.672.025 5.07.176 10.16 1.69 15.073 1.56 5.06 4.414 9.088 9.587 10.898 1.963.688 4.12.978 6.21 1.11 3.685.236 7.35-.134 10.903-1.226 8.034-2.472 12.52-8.08 14.038-16.173.44-2.344.668-4.76.68-7.143.06-13.996.075-27.994.005-41.99-.027-5.374-1.746-10.066-6.437-13.214-1.008-.672-2.15-1.142-3.344-1.766zM189.176 46.255h35.748c.025.055.05.11.077.164-.326.138-.65.28-.978.416-2.53 1.036-4.93 2.274-6.874 4.264-1.38 1.412-2.124 3.054-2.124 5.046.007 22.998.004 45.995.007 68.992 0 .314.046.627.08 1.096h1.328c5.68 0 11.36.088 17.038-.02 9.062-.175 16.455-3.605 21.387-11.49 1.183-1.89 2.26-3.864 3.196-5.888.913-1.98 1.583-4.07 2.398-6.214v25.21h-71.482c1.254-.47 2.753-.897 4.128-1.575 3.367-1.66 5.228-4.37 5.244-8.197.074-17.035.146-34.068.192-51.103.01-3.396-.217-6.796-.13-10.19.162-6.312-3.75-8.948-8.173-10.114-.367-.097-.732-.2-1.1-.298l.04-.1zM411.936 142.147v20.336c-6.45-18.247-17.726-19.164-27.55-18.586v68.592c0 5.31 2.99 9.286 8.12 10.806.258.076.507.18.99.354h-34.98c.375-.146.58-.248.795-.305 4.924-1.292 7.343-4.742 7.96-9.55.308-2.407.29-4.864.303-7.3.054-10.918.084-21.836.085-32.754 0-10.116-.047-20.233-.07-30.35 0-.392.032-.782.053-1.243h44.296zM154.238 142.125h35.984l.037.13c-.648.186-1.317.316-1.938.568-1.475.6-2.992 1.137-4.37 1.914-2.294 1.293-3.4 3.27-3.395 6.016.05 20.996.053 41.992.006 62.988-.01 4.358.272 6.347 6.108 8.75 1.134.468 2.346.742 3.742 1.174h-36.567c1.007-.35 1.797-.56 2.534-.89 1.417-.635 2.864-1.237 4.192-2.032 2.277-1.362 3.452-3.312 3.444-6.124-.06-21.114-.083-42.23.01-63.343.02-3.96-1.803-6.308-5.25-7.68-1.422-.566-2.92-.952-4.538-1.47zM434.553 23.285c-.645 6.61.87 12.254 4.163 17.444.596.938 1.323 1.805 2.063 2.64 1.65 1.86 1.644 3.818.04 5.687-4.698 5.473-6.84 11.818-6.318 19.024.214 2.963-.795 4.314-3.68 5.047-6.942 1.762-12.34 5.675-16.08 11.806-1.362 2.234-3.138 2.773-5.594 1.774-6.68-2.715-13.39-2.715-20.07-.005-2.508 1.018-4.238.45-5.66-1.86-3.784-6.154-9.238-10.057-16.242-11.77-2.52-.616-3.673-2.035-3.47-4.617.584-7.43-1.557-13.95-6.457-19.567-1.457-1.67-1.415-3.715.107-5.423 4.404-4.94 6.358-10.802 6.498-17.335.02-.915-.152-1.832-.167-2.75-.03-1.924 1.2-3.467 3.074-3.89 7.41-1.67 13.046-5.775 16.924-12.308 1.042-1.755 3.106-2.378 5.01-1.572 6.938 2.94 13.88 2.937 20.818.003 1.966-.83 3.966-.167 5.068 1.67 3.885 6.465 9.498 10.546 16.865 12.206 1.998.45 3.185 2.097 3.106 3.795zM415.47 71.908c-.84-.606-1.834-1.132-2.57-1.903-1.194-1.248-1.454-2.902-1.455-4.574-.008-11.195-.005-22.39 0-33.587 0-.263.062-.526.098-.814 6.046-.477 10.648 1.846 13.985 6.672v-7.544h-22.7v1.532c0 10.957-.027 21.913.015 32.87.013 3.34-.775 6.102-4.306 7.35 5.675-.002 11.352-.002 16.932-.002zm-16.596-41.795h-8.062c-2.56 0-5.118-.005-7.677.002-2.346.007-4.493.65-6.388 2.055-4.767 3.534-4.31 9.82.953 12.53 1.303.673 2.733 1.104 4.122 1.6 1.727.616 3.52 1.067 5.19 1.806 1.75.776 2.87 2.147 2.78 4.222-.113 2.63-1.785 4.94-4.35 5.547-4.186.99-7.254.27-9.737-3.22-.85-1.194-1.475-2.55-2.2-3.833-.16-.287-.313-.58-.575-1.064v8.72c.99-1.145 2.09-1.22 3.278-.876.958.277 1.91.585 2.88.815 4.532 1.075 8.665.45 12.042-3.025 4.055-4.17 3.227-10.063-1.86-12.807-1.456-.785-3.113-1.207-4.695-1.748-2.07-.708-4.23-1.21-6.216-2.096-1.84-.82-2.425-2.764-1.454-4.548.525-.965 1.387-1.898 2.328-2.457 3.3-1.96 7.503-.916 9.88 2.332.743 1.014 1.38 2.104 2.144 3.277.374-4.586 3.37-6.35 7.616-7.23z"/></g></g></g></svg>